<?xml version="1.0" encoding="UTF-8" standalone="no"?>
<svg
   xmlns:dc="http://purl.org/dc/elements/1.1/"
   xmlns:cc="http://creativecommons.org/ns#"
   xmlns:rdf="http://www.w3.org/1999/02/22-rdf-syntax-ns#"
   xmlns:svg="http://www.w3.org/2000/svg"
   xmlns="http://www.w3.org/2000/svg"
   viewBox="0 0 260.03751 77.987503"
   height="77.987503"
   width="260.03751"
   xml:space="preserve"
   version="1.1"
   id="svg2"><metadata
     id="metadata8"><rdf:RDF><cc:Work
         rdf:about=""><dc:format>image/svg+xml</dc:format><dc:type
           rdf:resource="http://purl.org/dc/dcmitype/StillImage" /></cc:Work></rdf:RDF></metadata><defs
     id="defs6" /><g
     transform="matrix(1.25,0,0,-1.25,0,77.9875)"
     id="g10"><g
       transform="scale(0.1,0.1)"
       id="g12"><path
         id="path14"
         style="fill:#231f20;fill-opacity:1;fill-rule:nonzero;stroke:none"
         d="m 121.609,290.547 -121.609,0 0,-23.067 120.77,0 c 0,-0.011 0,-0.031 0,-0.039 l 90.699,0 c 0,135.164 101.437,247.157 233.836,266.954 l 0,89.511 C 270.367,604.363 132.898,464.285 121.609,290.547" /><path
         id="path16"
         style="fill:#006946;fill-opacity:1;fill-rule:nonzero;stroke:none"
         d="m 210.621,267.93 c 0,-132.305 98.477,-247.1214 229.067,-267.051094 L 445.445,0 l 0,78.3086 -3.984,0.8242 C 352.512,97.5664 287.949,176.973 287.949,267.93 c 0,90.965 64.563,170.371 153.512,188.804 l 3.984,0.825 0,78.308 -5.757,-0.879 C 309.098,515.055 210.621,400.242 210.621,267.93" /><path
         id="path18"
         style="fill:#006946;fill-opacity:1;fill-rule:nonzero;stroke:none"
         d="m 587.992,486.523 c -28.457,0 -57.051,-9.738 -84.98,-28.933 l -2.168,-1.492 0,-36.207 14.273,0 1.11,3.488 c 3.16,9.937 21.632,31.719 55.953,31.719 35.269,0 54.695,-19.422 54.695,-54.7 0,-19.48 -7.539,-22.273 -49.871,-29.246 -48.484,-7.746 -98.609,-15.742 -98.609,-78.418 0,-7.351 1.132,-14.48 3.375,-21.183 l 1.136,-3.414 57.192,0 -4.184,7.449 c -3.769,6.699 -5.68,14.875 -5.68,24.297 0,38.347 39.082,45.379 73.559,51.582 3.137,0.566 6.187,1.113 9.16,1.68 l 11.883,2.371 0,-68.387 c 0,-3.059 -0.102,-13.945 -0.102,-13.945 l -0.043,-5.047 50.93,0 0.027,127.672 c 0,59.347 -30.312,90.714 -87.656,90.714" /><path
         id="path20"
         style="fill:#006946;fill-opacity:1;fill-rule:nonzero;stroke:none"
         d="m 883.418,486.523 c -21.328,0 -42.449,-13.793 -61.84,-40.582 l 0,37.868 -5.332,-0.352 c -2.992,-0.199 -5.762,-0.473 -8.414,-0.742 -8.684,-0.863 -16.996,-0.707 -25.094,0.121 -2.211,0.227 -4.402,0.449 -6.593,0.617 l -5.383,0.41 0,-215.726 50.816,0 0,98.582 c 0,26.406 0.82,42.285 17.633,61.5 6.742,7.636 19.375,11.058 28.898,11.058 4.246,0 8.512,-2.007 13.024,-4.132 3.105,-1.457 6.312,-2.969 9.672,-3.86 l 5.316,-1.422 8.684,52.11 -3.535,1.574 c -5.641,2.504 -10.625,2.976 -17.852,2.976" /><path
         id="path22"
         style="fill:#006946;fill-opacity:1;fill-rule:nonzero;stroke:none"
         d="m 1165.54,622.012 c -8.7,-0.864 -17.06,-0.703 -25.17,0.117 -2.2,0.223 -4.38,0.445 -6.56,0.609 l -5.38,0.41 0,-174.679 c -19.21,24.969 -44.9,38.054 -75.1,38.054 -66.471,0 -114.709,-55.746 -114.709,-132.558 0,-33.621 7.133,-61.731 21.188,-83.535 l 1.48,-2.293 57.591,0 -6.02,8.004 c -12.29,16.339 -19.337,42.101 -19.337,70.675 0,74.219 22.567,108.789 71.027,108.789 47.15,0 63.88,-49.808 63.88,-92.46 0,-17.024 -2.32,-59.571 -23.85,-86.915 l -6.36,-8.093 81.03,0 0,354.957 -5.33,-0.352 c -2.99,-0.199 -5.74,-0.472 -8.38,-0.73" /><path
         id="path24"
         style="fill:#006946;fill-opacity:1;fill-rule:nonzero;stroke:none"
         d="m 1357.93,486.523 c -28.45,0 -57.05,-9.738 -84.98,-28.933 l -2.16,-1.492 0,-36.207 14.27,0 1.11,3.488 c 3.16,9.937 21.63,31.719 55.95,31.719 35.27,0 54.7,-19.422 54.7,-54.7 0,-19.48 -7.54,-22.273 -49.88,-29.246 -48.47,-7.746 -98.6,-15.742 -98.6,-78.418 0,-7.351 1.13,-14.48 3.37,-21.183 l 1.14,-3.414 57.2,0 -4.2,7.449 c -3.77,6.699 -5.67,14.875 -5.67,24.297 0,38.347 39.08,45.379 73.56,51.582 3.13,0.566 6.18,1.113 9.16,1.68 l 11.88,2.371 0,-68.387 c 0,-3.059 -0.09,-13.953 -0.09,-13.953 l -0.04,-5.039 50.92,0 0.03,127.672 c 0,59.347 -30.32,90.714 -87.67,90.714" /><path
         id="path26"
         style="fill:#006946;fill-opacity:1;fill-rule:nonzero;stroke:none"
         d="m 1667.65,486.523 c -31.58,0 -57.96,-13.05 -77.15,-37.96 l 0,35.246 -5.33,-0.352 c -3,-0.199 -5.77,-0.48 -8.42,-0.742 -8.68,-0.863 -17,-0.703 -25.09,0.121 -2.21,0.227 -4.4,0.449 -6.6,0.617 l -5.38,0.41 0,-215.726 50.82,0 0,84.812 c 0,69.832 17.34,97.039 61.84,97.039 42.86,0 51.64,-31.859 51.64,-79.695 l 0,-102.156 50.81,0 0,113.894 c 0,72.266 -26.87,104.492 -87.14,104.492" /><path
         id="path28"
         style="fill:#006946;fill-opacity:1;fill-rule:nonzero;stroke:none"
         d="m 1956.95,486.523 c -77.99,0 -134.6,-53.82 -134.59,-127.675 -2.02,-34.153 7.3,-64.895 26.95,-88.879 l 1.5,-1.832 54.35,0 -6.33,8.082 c -13.92,17.785 -21.58,44.308 -21.58,74.679 0,33.02 7.71,109.817 79.2,109.817 50.91,0 68.98,-54.481 68.98,-101.137 0,-23.25 -6.65,-59.043 -25.39,-83.398 l -6.19,-8.043 54.63,0 1.49,1.793 c 19.58,23.449 30.36,54.386 30.36,87.101 0,77.449 -49.58,129.492 -123.38,129.492" /></g></g></svg>